<svg width="55" height="55" viewBox="0 0 55 55" fill="none" xmlns="http://www.w3.org/2000/svg">
<g clip-path="url(#clip0_8_2484)">
<path d="M45.7705 31.449C45.7705 30.0955 44.9283 28.9847 43.6307 28.6216C33.1976 25.7062 29.3371 21.8456 26.4152 11.4062C26.0521 10.1085 24.9414 9.26631 23.5878 9.26631C22.2343 9.26631 21.1236 10.1085 20.7605 11.4062C17.8451 21.8392 13.9845 25.6998 3.54502 28.6216C2.24738 28.9847 1.40515 30.0954 1.40515 31.449C1.40515 32.8025 2.24734 33.9133 3.54502 34.2764C13.9781 37.1918 17.8386 41.0524 20.7605 51.4918C21.1236 52.7895 22.2343 53.6317 23.5878 53.6317C24.9414 53.6317 26.0521 52.7895 26.4152 51.4918C29.3306 41.0588 33.1912 37.1982 43.6307 34.2764C44.9283 33.9133 45.7705 32.8025 45.7705 31.449ZM31.047 38.9065C28.3293 41.6243 26.4816 45.2531 24.8595 51.0496C24.6619 51.7586 24.0732 52.0121 23.5834 52.0121C23.0935 52.0121 22.5113 51.7586 22.3072 51.0496C20.6851 45.2531 18.8374 41.618 16.1197 38.9065C13.4019 36.1888 9.77313 34.3411 3.97658 32.719C3.26759 32.5214 3.01408 31.9327 3.01408 31.4429C3.01408 30.953 3.2676 30.3708 3.97658 30.1667C9.77313 28.5446 13.4082 26.697 16.1197 23.9792C18.8374 21.2614 20.6851 17.6326 22.3072 11.8361C22.5048 11.1271 23.0935 10.8736 23.5834 10.8736C24.0732 10.8736 24.6554 11.1271 24.8595 11.8361C26.4816 17.6326 28.3293 21.2677 31.047 23.9792C33.7648 26.6905 37.3936 28.5446 43.1901 30.1667C43.8991 30.3643 44.1526 30.953 44.1526 31.4429C44.1526 31.9327 43.8991 32.5149 43.1901 32.719C37.3936 34.3411 33.7585 36.1888 31.047 38.9065ZM52.5635 11.022C46.767 9.647 45.3145 8.19463 43.9395 2.398C43.7955 1.79213 43.2627 1.37537 42.6461 1.37537C42.0295 1.37537 41.4967 1.79431 41.3528 2.398C39.9778 8.19454 38.5254 9.647 32.7287 11.022C32.1229 11.1659 31.7061 11.6988 31.7061 12.3154C31.7061 12.932 32.1251 13.4648 32.7287 13.6087C38.5253 14.9837 39.9778 16.4361 41.3528 22.2327C41.4967 22.8386 42.0295 23.2554 42.6461 23.2554C43.2627 23.2554 43.7955 22.8321 43.9395 22.2327C45.3145 16.4362 46.7669 14.9837 52.5635 13.6087C53.1694 13.4648 53.5861 12.932 53.5861 12.3154C53.5861 11.6988 53.1672 11.166 52.5635 11.022ZM42.6465 20.7735C41.2543 15.6044 39.3573 13.7051 34.188 12.315C39.3571 10.9228 41.2564 9.02568 42.6465 3.85642C44.0387 9.0255 45.9358 10.9248 51.1051 12.315C45.936 13.7071 44.0367 15.5978 42.6465 20.7735ZM47.635 44.8035C44.8034 44.1331 44.1417 43.4714 43.4714 40.6398C43.3553 40.1499 42.9278 39.8083 42.4272 39.8083C41.9266 39.8083 41.4969 40.1499 41.3831 40.6398C40.7128 43.4714 40.0511 44.1331 37.2194 44.8035C36.7295 44.9195 36.3879 45.347 36.3879 45.8476C36.3879 46.3482 36.7295 46.7779 37.2194 46.8917C40.051 47.562 40.7128 48.2237 41.3831 51.0554C41.4991 51.5453 41.9266 51.8869 42.4272 51.8869C42.9278 51.8869 43.3575 51.5453 43.4714 51.0554C44.1417 48.2238 44.8034 47.562 47.635 46.8917C48.1249 46.7757 48.4665 46.3482 48.4665 45.8476C48.4665 45.347 48.1249 44.9173 47.635 44.8035ZM42.4206 48.9392C41.804 47.3386 40.9296 46.4642 39.329 45.8476C40.9296 45.231 41.804 44.363 42.4206 42.756C43.0372 44.3566 43.9116 45.231 45.5122 45.8476C43.9116 46.4642 43.0372 47.3386 42.4206 48.9392Z" stroke="#49ADE8" stroke-width="2" stroke-linecap="round" stroke-linejoin="round"/>
</g>
<defs>
<clipPath id="clip0_8_2484">
<rect width="55" height="55" fill="white"/>
</clipPath>
</defs>
</svg>
