<svg width="149" height="120" viewBox="0 0 149 120" fill="none" xmlns="http://www.w3.org/2000/svg">
<circle opacity="0.65" cx="89" cy="60" r="60" fill="#E38C7D"/>
<path d="M54.4883 50.4608V44.2303C54.4883 37.8397 49.289 32.6403 42.8983 32.6403C36.5075 32.6403 31.3083 37.8396 31.3083 44.2303V50.4608C28.4294 50.7499 26.1676 53.1914 26.1676 56.1523V75.8323C26.1676 78.9924 28.738 81.551 31.8864 81.551H53.9064C57.0665 81.551 59.6251 78.9807 59.6251 75.8323L59.629 56.1481C59.629 53.1988 57.379 50.7613 54.4884 50.4606L54.4883 50.4608ZM42.8983 35.2892C47.828 35.2892 51.84 39.3009 51.84 44.2308V50.4301H49.2189V44.2308C49.2189 40.7503 46.3907 37.9105 42.8985 37.9105C39.4103 37.9105 36.5782 40.7387 36.5782 44.2308V50.4301H33.9571V44.2308C33.961 39.3012 37.9689 35.2892 42.8988 35.2892H42.8983ZM46.5701 50.43H39.242V44.2308C39.242 42.2425 40.9216 40.5589 42.9021 40.5589C44.8904 40.5589 46.5623 42.2386 46.5623 44.2308L46.5584 50.43H46.5701ZM56.9801 75.8284C56.9801 77.5198 55.6012 78.8987 53.9098 78.8987H31.8898C30.1984 78.8987 28.8195 77.5198 28.8195 75.8284V56.1484C28.8195 54.4569 30.1984 53.078 31.8898 53.078H53.9098C55.6012 53.078 56.9801 54.4569 56.9801 56.1484V75.8284ZM42.8985 57.7625C39.9688 57.7625 37.5899 60.1414 37.5899 63.0711C37.5899 64.5399 38.1992 65.9422 39.2617 66.9422V70.5829C39.2617 72.5946 40.8906 74.2235 42.9024 74.2235C44.9141 74.2235 46.543 72.5946 46.543 70.5829V66.9422C47.6016 65.9422 48.2149 64.5438 48.2149 63.0711C48.2188 60.1493 45.8281 57.7625 42.8985 57.7625ZM44.4492 65.2391C44.0976 65.4891 43.8984 65.8875 43.8984 66.3173V70.579C43.8984 71.1298 43.457 71.5673 42.9102 71.5673C42.3594 71.5673 41.9219 71.1259 41.9219 70.579V66.3173C41.9219 65.8876 41.711 65.4891 41.3711 65.2391C40.6719 64.7391 40.2501 63.9305 40.2501 63.0673C40.2501 61.5985 41.4415 60.4071 42.9102 60.4071C44.379 60.4071 45.5704 61.5985 45.5704 63.0673C45.5587 63.9305 45.1485 64.7391 44.4493 65.2391H44.4492ZM95.9225 34.0199C95.9225 24.1799 87.9108 16.1683 78.0709 16.1683C73.3209 16.1683 69.02 18.0393 65.8209 21.0784L44.8209 12.5976C43.5396 12.0781 42.2505 12.0781 40.9693 12.5976L7.28929 26.2109C5.30879 27.0117 4.07837 28.832 4.07837 30.9727V54.2535C4.07837 67.5735 7.72679 78.9835 14.93 88.1752C21.309 96.3158 30.2817 102.304 40.8792 105.495C41.5589 105.694 42.2308 105.804 42.9105 105.804C43.5823 105.804 44.2503 105.702 44.9417 105.495C55.5434 102.316 64.52 96.3235 70.8909 88.1752C78.0901 78.9835 81.7425 67.5735 81.7425 54.2535V51.4918C89.8207 49.8003 95.9225 42.6093 95.9225 34.0184V34.0199ZM79.0784 54.2499C79.0784 78.1716 66.0275 96.3791 44.1684 102.949C43.2973 103.211 42.52 103.211 41.6371 102.949C19.7821 96.3788 6.73129 78.1724 6.73129 54.2499V30.9691C6.73129 29.9183 7.30941 29.0589 8.28204 28.6683L41.9704 15.0592C42.5993 14.7975 43.2009 14.7975 43.8297 15.0592L63.9389 23.1803C62.9194 24.5006 62.0873 25.9615 61.4701 27.5396L43.4001 20.2388C43.0798 20.1099 42.7282 20.1099 42.4119 20.2388L12.521 32.3088C12.021 32.5081 11.6929 33.0003 11.6929 33.5393V54.2502C11.6929 64.711 14.4312 74.1994 19.6226 81.6994C24.9312 89.3712 32.8417 95.0085 42.5017 98.0193C42.6307 98.0584 42.7635 98.0779 42.8924 98.0779C43.0213 98.0779 43.1619 98.0584 43.283 98.0193C52.943 95.0193 60.8613 89.371 66.1622 81.6994C71.3536 74.1994 74.0918 64.711 74.0918 54.2502V51.4103C75.3731 51.6994 76.6934 51.8713 78.0606 51.8713C78.4004 51.8713 78.7207 51.84 79.0606 51.8205V54.2502L79.0784 54.2499ZM71.4612 50.5781V54.2499C71.4612 74.5899 61.0629 89.5508 42.9104 95.3591C24.762 89.5505 14.3595 74.5891 14.3595 54.2499V34.4299L42.8987 22.8991L60.6795 30.0905C60.3905 31.36 60.2303 32.6687 60.2303 34.0319C60.2303 41.5202 64.8905 47.9419 71.4603 50.5786L71.4612 50.5781ZM78.0784 49.2109C69.6992 49.2109 62.8875 42.3906 62.8875 34.0201C62.8875 25.6409 69.7079 18.8293 78.0784 18.8293C86.4575 18.8293 93.2692 25.6496 93.2692 34.0201C93.2692 42.3993 86.4606 49.2109 78.0784 49.2109ZM87.8792 28.3401C88.3401 28.9104 88.2386 29.7503 87.6683 30.1994L75.4883 39.9103C75.25 40.1017 74.9492 40.1993 74.6601 40.1993C74.2812 40.1993 73.9101 40.0392 73.6484 39.7306L68.2968 33.4102C67.8281 32.8517 67.8984 32.0118 68.457 31.5392C69.0156 31.0704 69.8554 31.1407 70.3281 31.6993L74.8476 37.0392L86.0276 28.1292C86.5901 27.6721 87.43 27.7698 87.8792 28.3401Z" fill="black"/>
</svg>
