<svg width="150" height="120" viewBox="0 0 150 120" fill="none" xmlns="http://www.w3.org/2000/svg">
<circle opacity="0.65" cx="90" cy="60" r="60" fill="#E38C7D"/>
<g clip-path="url(#clip0_7_3006)">
<path d="M36.3741 64.8507H59.6461H59.6464C60.0336 64.8485 60.4042 64.6919 60.6761 64.4163C60.948 64.1404 61.0989 63.7676 61.0955 63.3801V50.2945C61.0883 50.0295 61.0098 49.7714 60.8683 49.5473C60.727 49.3229 60.528 49.1407 60.2923 49.0198L54.4658 46.1214C54.0608 45.9045 53.5742 45.9045 53.1695 46.1214L48.0102 48.6714L42.8295 46.1214C42.4305 45.912 41.9539 45.912 41.5545 46.1214L35.6983 49.007C35.2251 49.2607 34.9214 49.7454 34.8992 50.282V63.3676C34.8923 63.7614 35.0451 64.1414 35.3229 64.4207C35.6011 64.7004 35.9801 64.8554 36.3739 64.8507L36.3741 64.8507ZM53.7981 49.0451L58.1628 51.2082V61.9098H49.4588V51.2082L53.7981 49.0451ZM37.8229 51.2082L42.1791 49.0451L46.5439 51.2082V61.9098H37.8231L37.8229 51.2082ZM36.3739 37.821H59.6459V37.8213C60.0334 37.8201 60.4046 37.6641 60.6768 37.3882C60.949 37.1119 61.0993 36.7385 61.0949 36.3507V23.2699C61.0912 23.0039 61.0143 22.7443 60.8728 22.5193C60.7309 22.2946 60.5299 22.113 60.2918 21.9949L54.4653 19.1049C54.0603 18.8883 53.5737 18.8883 53.169 19.1049L48.0097 21.6974L42.829 19.1049C42.43 18.8958 41.9534 18.8958 41.554 19.1049L35.6977 21.9736C35.4631 22.0955 35.2652 22.278 35.1246 22.5023C34.984 22.7264 34.9062 22.9842 34.8987 23.2486V36.351C34.8943 36.7432 35.048 37.1207 35.3259 37.3976C35.6037 37.6744 35.9815 37.8272 36.3734 37.8216L36.3739 37.821ZM53.7979 22.0202L58.1626 24.1749L58.1623 34.8765H49.4583V24.1757L53.7979 22.0202ZM37.8227 24.1753L42.1789 22.0205L46.5436 24.1753L46.5433 34.8761H37.8225L37.8227 24.1753ZM10.857 46.3721C11.1183 46.6542 11.2636 47.0245 11.2636 47.4089C11.2636 47.7936 11.1183 48.1639 10.857 48.4461C10.5789 48.7136 10.208 48.8633 9.82201 48.8633C9.43603 48.8633 9.06514 48.7136 8.78729 48.4461C8.52604 48.164 8.38073 47.7936 8.38073 47.4089C8.38073 47.0246 8.52604 46.6542 8.78729 46.3721C9.07385 46.1217 9.44135 45.9836 9.82201 45.9836C10.2026 45.9836 10.5704 46.1217 10.857 46.3721ZM9.82425 68.1697C9.3005 68.1697 8.81641 67.8903 8.55457 67.4365C8.2927 66.9831 8.2927 66.424 8.55457 65.9703C8.81644 65.5168 9.30051 65.2372 9.82425 65.2372C10.348 65.2372 10.8321 65.5168 11.0939 65.9703C11.3561 66.424 11.3561 66.9831 11.0939 67.4365C10.8321 67.8903 10.348 68.1697 9.82425 68.1697ZM9.82425 58.5009C9.308 58.5009 8.83113 58.2255 8.57297 57.7784C8.31484 57.3315 8.31484 56.7805 8.57297 56.3334C8.8311 55.8865 9.30797 55.6112 9.82425 55.6112C10.3405 55.6112 10.8177 55.8865 11.0758 56.3334C11.3337 56.7806 11.3337 57.3316 11.0758 57.7784C10.8177 58.2255 10.3405 58.5009 9.82425 58.5009ZM9.82425 77.7993C9.308 77.7993 8.83113 77.5236 8.57297 77.0768C8.31484 76.6296 8.31484 76.0789 8.57297 75.6318C8.8311 75.1846 9.30797 74.9093 9.82425 74.9093C10.3405 74.9093 10.8177 75.1846 11.0758 75.6318C11.3337 76.079 11.3337 76.6296 11.0758 77.0768C10.8177 77.5236 10.3405 77.7993 9.82425 77.7993ZM10.857 84.9645C11.1183 85.2464 11.2636 85.6167 11.2636 86.0014C11.2636 86.3858 11.1183 86.7561 10.857 87.0383C10.5811 87.3102 10.2095 87.4624 9.82201 87.4624C9.43483 87.4624 9.06326 87.3102 8.78729 87.0383C8.52604 86.7561 8.38073 86.3858 8.38073 86.0014C8.38073 85.6167 8.52604 85.2464 8.78729 84.9645C9.06416 84.6945 9.43542 84.5436 9.82201 84.5436C10.2086 84.5436 10.5801 84.6945 10.857 84.9645ZM18.1795 46.3714C18.4545 46.6442 18.6098 47.0152 18.6108 47.4024C18.612 47.7899 18.4589 48.1618 18.1855 48.4358C17.9117 48.7102 17.5405 48.8643 17.1533 48.8643C16.7658 48.8643 16.3946 48.7102 16.1208 48.4358C15.8474 48.1618 15.6943 47.7899 15.6955 47.4024C15.6965 47.0152 15.8518 46.6443 16.1268 46.3714C16.4099 46.1205 16.7749 45.982 17.1533 45.982C17.5315 45.982 17.8964 46.1205 18.1795 46.3714ZM17.1595 58.5002C16.6433 58.5002 16.1664 58.2249 15.9082 57.7777C15.6501 57.3309 15.6501 56.7799 15.9082 56.3328C16.1664 55.8859 16.6432 55.6106 17.1595 55.6106C17.6758 55.6106 18.1527 55.8859 18.4108 56.3328C18.6689 56.7799 18.6689 57.3309 18.4108 57.7777C18.1527 58.2249 17.6758 58.5002 17.1595 58.5002ZM17.1595 77.7986C16.6433 77.7986 16.1664 77.523 15.9082 77.0761C15.6501 76.6289 15.6501 76.0783 15.9082 75.6312C16.1664 75.184 16.6432 74.9087 17.1595 74.9087C17.6758 74.9087 18.1527 75.184 18.4108 75.6312C18.6689 76.0783 18.6689 76.629 18.4108 77.0761C18.1527 77.523 17.6758 77.7986 17.1595 77.7986ZM17.1595 68.1682C16.6358 68.1682 16.1517 67.8888 15.8898 67.4351C15.628 66.9817 15.628 66.4226 15.8898 65.9689C16.1517 65.5154 16.6358 65.2357 17.1595 65.2357C17.6833 65.2357 18.1674 65.5154 18.4292 65.9689C18.6911 66.4226 18.6911 66.9817 18.4292 67.4351C18.1673 67.8888 17.6833 68.1682 17.1595 68.1682ZM18.1795 84.9637C18.4527 85.2397 18.6058 85.6122 18.6058 86.0006C18.6058 86.3887 18.4527 86.7615 18.1795 87.0375C17.9077 87.3103 17.5383 87.4637 17.1533 87.4637C16.768 87.4637 16.3986 87.3103 16.1267 87.0375C15.8549 86.7609 15.7024 86.3884 15.7024 86.0006C15.7024 85.6125 15.8548 85.2403 16.1267 84.9637C16.4005 84.694 16.7689 84.5428 17.1533 84.5428C17.5374 84.5428 17.9058 84.694 18.1795 84.9637ZM95.1955 40.9693L71.2771 29.7453V16.1029C71.274 15.8379 71.2006 15.5786 71.0649 15.3508C70.929 15.1232 70.7356 14.9354 70.5037 14.8067L48.6805 3.19229C48.4749 3.06729 48.2389 3.00104 47.9983 3.00104C47.7577 3.00104 47.5218 3.06729 47.3161 3.19229L25.4977 14.8067C25.0265 15.0698 24.7302 15.5632 24.7202 16.1029V29.7453L0.849025 40.9693C0.595273 41.0775 0.379337 41.2584 0.228089 41.489C0.0768412 41.7196 -0.00284684 41.9896 -0.00097484 42.2656V97.5136C-0.00316236 97.9033 0.150585 98.2773 0.425897 98.5529C0.701521 98.8282 1.07559 98.982 1.46526 98.9798H94.5373C94.9238 98.9786 95.2938 98.8232 95.5651 98.5479C95.8367 98.2723 95.9867 97.9001 95.9823 97.5135V42.2655C95.9879 41.9971 95.9173 41.7324 95.7779 41.5027C95.6385 41.2733 95.4367 41.088 95.196 40.9693L95.1955 40.9693ZM2.91553 43.2175L24.7131 32.9415V96.1071H2.91553V43.2175ZM27.6195 30.6503V16.9663L48.0187 6.12949L68.3755 16.9663V96.1071H61.0911V74.4327C61.0946 74.0458 60.9433 73.6733 60.6714 73.398C60.3996 73.123 60.029 72.9677 59.6421 72.9664H36.3693C35.9799 72.9642 35.6055 73.118 35.3302 73.3933C35.0546 73.6689 34.9009 74.043 34.9034 74.4326V96.107H27.619L27.6195 30.6503ZM37.8195 75.9031H46.5403V96.1071L37.8195 96.1074V75.9031ZM49.4555 96.1071L49.4552 75.9031H58.176V96.1071H49.4555ZM93.1011 96.1071L71.2739 96.1074V32.9418L93.1011 43.2178V96.1071ZM85.158 48.4455C84.883 48.1705 84.7283 47.7974 84.7283 47.4083C84.7283 47.0195 84.883 46.6464 85.158 46.3714C85.4411 46.1205 85.8061 45.982 86.1842 45.982C86.5627 45.982 86.9277 46.1205 87.2108 46.3714C87.4849 46.647 87.6386 47.0199 87.6386 47.4083C87.6386 47.797 87.4849 48.1699 87.2108 48.4455C86.9336 48.7061 86.5711 48.8571 86.1908 48.8705C85.8052 48.8649 85.4361 48.7127 85.158 48.4455ZM86.1908 74.9095C86.7071 74.9095 87.1839 75.1848 87.4421 75.632C87.7002 76.0792 87.7002 76.6298 87.4421 77.077C87.184 77.5238 86.7071 77.7994 86.1908 77.7994C85.6746 77.7994 85.1974 77.5238 84.9392 77.077C84.6814 76.6298 84.6814 76.0791 84.9392 75.632C85.1973 75.1848 85.6745 74.9095 86.1908 74.9095ZM86.1908 55.6114C86.7071 55.6114 87.1839 55.8867 87.4421 56.3336C87.7002 56.7808 87.7002 57.3318 87.4421 57.7785C87.184 58.2257 86.7071 58.501 86.1908 58.501C85.6746 58.501 85.1974 58.2257 84.9392 57.7785C84.6814 57.3317 84.6814 56.7807 84.9392 56.3336C85.1973 55.8867 85.6745 55.6114 86.1908 55.6114ZM86.1908 65.2367C86.7146 65.2367 87.1987 65.5164 87.4605 65.9698C87.7224 66.4236 87.7224 66.9826 87.4605 67.4361C87.1986 67.8898 86.7146 68.1692 86.1908 68.1692C85.6671 68.1692 85.183 67.8898 84.9211 67.4361C84.6589 66.9826 84.6589 66.4236 84.9211 65.9698C85.183 65.5164 85.6671 65.2367 86.1908 65.2367ZM85.158 87.0383C84.8861 86.7617 84.7336 86.3892 84.7336 86.0014C84.7336 85.6133 84.8861 85.2411 85.158 84.9645C85.5286 84.5977 86.0664 84.4564 86.5693 84.5939C87.0721 84.7314 87.4634 85.1267 87.5955 85.6311C87.728 86.1352 87.5812 86.6718 87.2108 87.0383C86.9352 87.3018 86.5718 87.4533 86.1908 87.4633C85.8037 87.4649 85.4321 87.3117 85.158 87.0383ZM77.8187 48.4455C77.5424 48.1711 77.3871 47.7977 77.3871 47.4083C77.3871 47.0192 77.5424 46.6458 77.8187 46.3714C78.1015 46.1205 78.4668 45.982 78.8449 45.982C79.223 45.982 79.5883 46.1205 79.8711 46.3714C80.1443 46.6477 80.2974 47.0202 80.2974 47.4083C80.2974 47.7967 80.1443 48.1692 79.8711 48.4455C79.5986 48.7171 79.2296 48.8696 78.8449 48.8696C78.4602 48.8696 78.0911 48.7171 77.8187 48.4455ZM78.8511 55.6108C79.3674 55.6108 79.8446 55.8861 80.1027 56.333C80.3609 56.7801 80.3609 57.3311 80.1027 57.7779C79.8446 58.2251 79.3674 58.5004 78.8511 58.5004C78.3352 58.5004 77.858 58.2251 77.5999 57.7779C77.3417 57.331 77.3417 56.7801 77.5999 56.333C77.858 55.8861 78.3352 55.6108 78.8511 55.6108ZM78.8511 65.2361C79.3752 65.2361 79.8593 65.5158 80.1211 65.9692C80.383 66.4229 80.383 66.982 80.1211 67.4354C79.8593 67.8892 79.3752 68.1686 78.8511 68.1686C78.3274 68.1686 77.8433 67.8892 77.5815 67.4354C77.3196 66.982 77.3196 66.423 77.5815 65.9692C77.8433 65.5158 78.3274 65.2361 78.8511 65.2361ZM78.8511 74.9089C79.3674 74.9089 79.8446 75.1842 80.1027 75.6314C80.3609 76.0785 80.3609 76.6292 80.1027 77.0763C79.8446 77.5232 79.3674 77.7988 78.8511 77.7988C78.3352 77.7988 77.858 77.5232 77.5999 77.0763C77.3417 76.6291 77.3417 76.0785 77.5999 75.6314C77.858 75.1842 78.3352 74.9089 78.8511 74.9089ZM77.8187 87.0377C77.448 86.6711 77.3015 86.1345 77.4337 85.6305C77.5662 85.1261 77.9574 84.7308 78.4599 84.5933C78.9627 84.4558 79.5009 84.597 79.8712 84.9639C80.1443 85.2398 80.2974 85.6123 80.2974 86.0008C80.2974 86.3889 80.1443 86.7617 79.8712 87.0376C79.6018 87.3148 79.2315 87.4711 78.8449 87.4711C78.4584 87.4711 78.0883 87.3148 77.8187 87.0377Z" fill="black"/>
</g>
<defs>
<clipPath id="clip0_7_3006">
<rect width="96" height="96" fill="white" transform="translate(0 3)"/>
</clipPath>
</defs>
</svg>
