<svg width="46" height="35" viewBox="0 0 46 35" fill="none" xmlns="http://www.w3.org/2000/svg">
<path d="M22.8277 1.40194e-05C22.395 0.00163865 21.9809 0.175117 21.6762 0.482191C21.3715 0.789248 21.2012 1.20481 21.203 1.63731V33.3753C21.2047 33.8057 21.3763 34.2179 21.6807 34.5223C21.985 34.8266 22.3973 34.9983 22.8277 34.9999C23.2602 35.0016 23.6758 34.8315 23.9828 34.5268C24.2898 34.2221 24.4633 33.8078 24.465 33.3753V1.63731C24.4668 1.20263 24.2947 0.785111 23.9873 0.477662C23.6799 0.170245 23.2623 -0.00178825 22.8277 1.40194e-05ZM8.69325 2.88933C8.26001 2.89006 7.84502 3.06317 7.53975 3.3704C7.23431 3.67746 7.06372 4.09353 7.06533 4.52663V30.4858C7.06696 30.9167 7.23917 31.3296 7.54423 31.6339C7.84912 31.9383 8.26232 32.1097 8.6932 32.1104C9.12572 32.1122 9.54128 31.942 9.84832 31.6373C10.1553 31.3326 10.3288 30.9185 10.3305 30.4858V4.52663C10.3323 4.09195 10.1603 3.67443 9.85285 3.36698C9.54542 3.05953 9.12787 2.88753 8.6932 2.88933H8.69325ZM36.9621 2.88933C36.5294 2.89096 36.1153 3.06444 35.8106 3.37151C35.5059 3.67858 35.3357 4.09413 35.3375 4.52663V30.4858C35.3391 30.9162 35.5108 31.3284 35.8151 31.6328C36.1195 31.9371 36.5318 32.1088 36.9621 32.1104C37.3946 32.1122 37.8102 31.942 38.1172 31.6373C38.4243 31.3326 38.5977 30.9185 38.5994 30.4858V4.52663C38.6012 4.09195 38.4292 3.67443 38.1218 3.36698C37.8143 3.05953 37.3968 2.88753 36.9621 2.88933ZM15.7591 7.45098C15.3266 7.45278 14.9123 7.62626 14.6076 7.93334C14.3028 8.24042 14.1326 8.65596 14.1344 9.08846V25.9212C14.1361 26.3516 14.3077 26.7638 14.6121 27.0682C14.9164 27.3724 15.3287 27.5442 15.7591 27.5458C16.1916 27.5475 16.6072 27.3772 16.9142 27.0727C17.2212 26.768 17.3947 26.3537 17.3964 25.9212V9.08846C17.3982 8.65359 17.2261 8.23626 16.9187 7.92881C16.6113 7.6214 16.1937 7.44936 15.7591 7.45098ZM29.8935 7.45098C29.461 7.45278 29.0467 7.62626 28.742 7.93334C28.4373 8.24042 28.2671 8.65596 28.2689 9.08846V25.9212C28.2705 26.3516 28.4422 26.7638 28.7465 27.0682C29.0509 27.3724 29.4632 27.5442 29.8935 27.5458C30.326 27.5475 30.7416 27.3772 31.0486 27.0727C31.3557 26.768 31.5291 26.3537 31.5308 25.9212V9.08846C31.5326 8.65359 31.3606 8.23626 31.0532 7.92881C30.7457 7.6214 30.3282 7.44936 29.8935 7.45098ZM1.62464 11.0156C1.19429 11.0174 0.782013 11.1891 0.47766 11.4935C0.173311 11.7978 0.00162896 12.2099 1.15352e-05 12.6403V22.3596C-0.0016131 22.7921 0.168431 23.2077 0.473131 23.5147C0.77783 23.8218 1.19214 23.9952 1.62464 23.9969C2.05932 23.9987 2.47684 23.8267 2.78429 23.5192C3.09171 23.2118 3.26374 22.7943 3.26194 22.3596V12.6403C3.26031 12.2078 3.08684 11.7937 2.77976 11.4889C2.4727 11.1842 2.05714 11.014 1.62464 11.0156ZM44.0279 11.0156C43.5976 11.0174 43.1853 11.1891 42.881 11.4935C42.5766 11.7978 42.4049 12.2099 42.4033 12.6403V22.3596C42.4015 22.7921 42.5717 23.2077 42.8764 23.5147C43.1811 23.8218 43.5954 23.9952 44.0279 23.9969C44.4632 23.9994 44.8816 23.8279 45.1898 23.5204C45.4979 23.2129 45.6703 22.7949 45.6685 22.3596V12.6403C45.6668 12.2073 45.4928 11.7926 45.1852 11.4879C44.8774 11.183 44.461 11.0131 44.0279 11.0156Z" fill="#49ADE8"/>
</svg>
