<svg width="16" height="16" viewBox="0 0 16 16" fill="none" xmlns="http://www.w3.org/2000/svg">
<path d="M7.9175 9.24145L11.5745 5.58444C11.6411 5.51136 11.7216 5.45237 11.8114 5.41096C11.9011 5.36956 11.9983 5.34659 12.0971 5.3434C12.1959 5.34022 12.2943 5.35689 12.3866 5.39242C12.4788 5.42796 12.563 5.48164 12.6341 5.55029C12.7052 5.61894 12.7619 5.70116 12.8006 5.79209C12.8394 5.88302 12.8596 5.9808 12.8599 6.07965C12.8602 6.1785 12.8407 6.27641 12.8025 6.36759C12.7643 6.45876 12.7082 6.54134 12.6375 6.61044L12.6195 6.62844L8.4405 10.8084C8.30192 10.947 8.11397 11.0248 7.918 11.0248C7.72203 11.0248 7.53409 10.947 7.3955 10.8084L3.2165 6.62945C3.14671 6.56201 3.09087 6.48149 3.05219 6.39248C3.01352 6.30347 2.99275 6.20771 2.99108 6.11067C2.9894 6.01364 3.00686 5.91722 3.04245 5.82693C3.07804 5.73664 3.13107 5.65424 3.1985 5.58445C3.26594 5.51465 3.34646 5.45882 3.43547 5.42014C3.52448 5.38146 3.62024 5.36069 3.71728 5.35902C3.81431 5.35735 3.91073 5.37481 4.00102 5.4104C4.09131 5.44599 4.17371 5.49901 4.2435 5.56645L4.2615 5.58445L7.9175 9.24145Z" fill="#49ADE8" stroke="#49ADE8" stroke-width="0.5"/>
</svg>
