<svg width="137" height="120" viewBox="0 0 137 120" fill="none" xmlns="http://www.w3.org/2000/svg">
<circle opacity="0.65" cx="76.5" cy="60" r="60" fill="#49ADE8"/>
<path d="M37.7459 61.5721C46.9496 61.5721 55.743 64.9756 62.5281 71.1961H62.531L62.6023 71.2625C69.3571 77.4857 73.5135 85.9154 74.3211 95.0145L74.3348 95.2293C74.3746 96.3038 73.9809 97.3601 73.2596 98.159L73.2576 98.1609C72.4689 99.0118 71.3666 99.5124 70.199 99.5125H5.31327C4.14566 99.5125 3.04336 99.0119 2.25468 98.1609L2.25175 98.159C1.4824 97.307 1.08679 96.1619 1.1912 95.0145C1.97913 85.9149 6.13578 77.4854 12.8904 71.2625L13.533 70.6854C20.2368 64.8071 28.7975 61.5721 37.7459 61.5721ZM37.7459 64.0281C20.1525 64.0282 5.15994 77.7398 3.62577 95.2352L3.62479 95.241C3.58052 95.6391 3.69096 96.0376 3.93436 96.3572L4.04667 96.4891L4.05058 96.493C4.37289 96.8492 4.81374 97.0369 5.29374 97.0369H70.1785C70.5986 97.0369 70.9889 96.8936 71.2957 96.619L71.4256 96.4891L71.5379 96.3572C71.7813 96.041 71.8951 95.6541 71.866 95.2352C70.3124 77.7395 55.339 64.0281 37.7459 64.0281Z" fill="black" stroke="black" stroke-width="0.5"/>
<mask id="path-3-outside-1_7_3001" maskUnits="userSpaceOnUse" x="-0.5" y="2" width="76" height="59" fill="black">
<rect fill="white" x="-0.5" y="2" width="76" height="59"/>
<path d="M70.1203 29.4085C69.69 27.2762 69.0443 25.203 68.1837 23.1881C66.5207 19.2562 64.1344 15.7155 61.1022 12.6833C58.0701 9.65115 54.5293 7.26477 50.5974 5.6018C46.5285 3.88063 42.2054 3 37.7455 3C33.2855 3 28.9624 3.88017 24.8937 5.6018C20.9618 7.26477 17.421 9.65115 14.3889 12.6833C11.3567 15.7155 8.97037 19.2562 7.3074 23.1881C6.4468 25.2029 5.82072 27.2765 5.37081 29.4085C2.49527 30.8169 0.5 33.7707 0.5 37.194V40.0498C0.5 44.8227 4.37318 48.6959 9.14606 48.6959H12.3343C13.5665 48.6959 14.5837 47.6786 14.5837 46.4465V30.7974C14.5837 30.2887 14.4074 29.8193 14.1338 29.4477C17.0289 19.1388 26.5162 11.549 37.7445 11.549C48.914 11.549 58.3818 19.0607 61.3161 29.3108C61.062 29.6432 60.9054 30.0735 60.9054 30.5238V42.2607L58.9688 43.8062C59.5557 41.7914 59.8685 39.6785 59.8685 37.5271C59.8685 31.6195 57.5604 26.0638 53.3936 21.8779C49.2076 17.692 43.6519 15.4029 37.7444 15.4029C31.8368 15.4029 26.2811 17.7111 22.0952 21.8779C17.9093 26.0638 15.6202 31.6195 15.6202 37.5271C15.6202 43.4347 17.9283 48.9904 22.0952 53.1763C26.2811 57.3622 31.8368 59.6513 37.7444 59.6513C43.4562 59.6513 48.8356 57.4992 52.9632 53.5674L55.7995 53.4695L62.059 48.5204C62.3131 48.6379 62.5677 48.6967 62.8609 48.6967H66.3428C71.1157 48.6967 74.9889 44.8235 74.9889 40.0506V37.1948C74.9908 33.771 72.9954 30.8172 70.12 29.4083L70.1203 29.4085ZM12.6291 46.4465C12.6291 46.6032 12.5116 46.7202 12.3554 46.7202H9.16717C5.48986 46.7202 2.49682 43.7273 2.49682 40.0498V37.194C2.49682 35.1008 3.4749 33.223 4.98113 32.0104C5.60723 31.5018 6.35031 31.0911 7.13314 30.8366C7.77881 30.6212 8.4632 30.5237 9.16766 30.5237H12.3755C12.5321 30.5237 12.6491 30.6412 12.6491 30.7974V37.0374L12.6487 46.4466L12.6291 46.4465ZM56.4664 17.3195C54.0407 14.8939 51.2045 12.9768 48.0548 11.6469C44.7882 10.2582 41.3258 9.57327 37.7459 9.57327C34.166 9.57327 30.7035 10.2777 27.437 11.6469C24.2874 12.977 21.4511 14.894 19.0255 17.3195C16.5998 19.745 14.6828 22.5814 13.3529 25.7311C12.9617 26.6504 12.6289 27.5893 12.3552 28.5282H9.16693C8.61915 28.5282 8.09095 28.587 7.58233 28.6849C10.8881 15.0896 23.1728 4.97635 37.7657 4.97635C52.3586 4.97635 64.6432 15.0895 67.9491 28.6849C67.4404 28.587 66.9122 28.5282 66.3645 28.5282H63.1762C62.9025 27.5893 62.5697 26.6504 62.1785 25.7311C60.8093 22.601 58.9119 19.7647 56.4667 17.3195H56.4664ZM37.746 57.6748C26.6352 57.6748 17.5977 48.6372 17.5977 37.5265C17.5977 26.4158 26.6354 17.3782 37.746 17.3782C48.8567 17.3782 57.8944 26.4158 57.8944 37.5265C57.8944 40.6369 57.1899 43.5908 55.9187 46.2312L54.5495 47.3268L48.544 47.6004C47.5659 45.5659 45.4923 44.1772 43.1059 44.1772H41.7367C38.4114 44.1772 35.7116 46.8764 35.7116 50.2022C35.7116 53.5276 38.4109 56.2273 41.7367 56.2273H43.1059C45.1012 56.2273 46.8616 55.2492 47.9571 53.7626L49.7567 53.7038C46.4118 56.1881 42.2453 57.6748 37.7462 57.6748L37.746 57.6748ZM47.1552 49.7916C47.1748 49.9286 47.1748 50.0456 47.1748 50.1827C47.1748 50.613 47.1161 51.0237 46.979 51.4148C46.7636 52.0605 46.4116 52.6469 45.9226 53.0973C45.1986 53.8018 44.2014 54.2321 43.1059 54.2321H41.7367C39.5069 54.2321 37.6873 52.413 37.6873 50.1827C37.6873 47.9529 39.5064 46.1334 41.7367 46.1334H43.1059C44.4946 46.1334 45.7469 46.8378 46.4705 47.9329C46.842 48.4611 47.0769 49.1067 47.1552 49.7916ZM60.907 46.9357L55.0972 51.5132H54.8818L52.1434 51.6111L48.9552 51.7286C49.0922 51.2396 49.151 50.7114 49.151 50.1831C49.151 49.9677 49.1314 49.7528 49.1118 49.5374L54.1001 49.3025L55.2936 49.2437L57.5233 47.4638L60.9075 44.7645V46.7402L60.907 46.9357ZM73.0154 40.0501C73.0154 43.7274 70.0225 46.7204 66.345 46.7204H62.8631V30.5039H66.3447C67.0491 30.5039 67.7334 30.6214 68.3792 30.8167C69.181 31.0708 69.905 31.4624 70.5312 31.9906C72.0374 33.2228 73.0155 35.0815 73.0155 37.1742L73.0154 40.0501Z"/>
</mask>
<path d="M70.1203 29.4085C69.69 27.2762 69.0443 25.203 68.1837 23.1881C66.5207 19.2562 64.1344 15.7155 61.1022 12.6833C58.0701 9.65115 54.5293 7.26477 50.5974 5.6018C46.5285 3.88063 42.2054 3 37.7455 3C33.2855 3 28.9624 3.88017 24.8937 5.6018C20.9618 7.26477 17.421 9.65115 14.3889 12.6833C11.3567 15.7155 8.97037 19.2562 7.3074 23.1881C6.4468 25.2029 5.82072 27.2765 5.37081 29.4085C2.49527 30.8169 0.5 33.7707 0.5 37.194V40.0498C0.5 44.8227 4.37318 48.6959 9.14606 48.6959H12.3343C13.5665 48.6959 14.5837 47.6786 14.5837 46.4465V30.7974C14.5837 30.2887 14.4074 29.8193 14.1338 29.4477C17.0289 19.1388 26.5162 11.549 37.7445 11.549C48.914 11.549 58.3818 19.0607 61.3161 29.3108C61.062 29.6432 60.9054 30.0735 60.9054 30.5238V42.2607L58.9688 43.8062C59.5557 41.7914 59.8685 39.6785 59.8685 37.5271C59.8685 31.6195 57.5604 26.0638 53.3936 21.8779C49.2076 17.692 43.6519 15.4029 37.7444 15.4029C31.8368 15.4029 26.2811 17.7111 22.0952 21.8779C17.9093 26.0638 15.6202 31.6195 15.6202 37.5271C15.6202 43.4347 17.9283 48.9904 22.0952 53.1763C26.2811 57.3622 31.8368 59.6513 37.7444 59.6513C43.4562 59.6513 48.8356 57.4992 52.9632 53.5674L55.7995 53.4695L62.059 48.5204C62.3131 48.6379 62.5677 48.6967 62.8609 48.6967H66.3428C71.1157 48.6967 74.9889 44.8235 74.9889 40.0506V37.1948C74.9908 33.771 72.9954 30.8172 70.12 29.4083L70.1203 29.4085ZM12.6291 46.4465C12.6291 46.6032 12.5116 46.7202 12.3554 46.7202H9.16717C5.48986 46.7202 2.49682 43.7273 2.49682 40.0498V37.194C2.49682 35.1008 3.4749 33.223 4.98113 32.0104C5.60723 31.5018 6.35031 31.0911 7.13314 30.8366C7.77881 30.6212 8.4632 30.5237 9.16766 30.5237H12.3755C12.5321 30.5237 12.6491 30.6412 12.6491 30.7974V37.0374L12.6487 46.4466L12.6291 46.4465ZM56.4664 17.3195C54.0407 14.8939 51.2045 12.9768 48.0548 11.6469C44.7882 10.2582 41.3258 9.57327 37.7459 9.57327C34.166 9.57327 30.7035 10.2777 27.437 11.6469C24.2874 12.977 21.4511 14.894 19.0255 17.3195C16.5998 19.745 14.6828 22.5814 13.3529 25.7311C12.9617 26.6504 12.6289 27.5893 12.3552 28.5282H9.16693C8.61915 28.5282 8.09095 28.587 7.58233 28.6849C10.8881 15.0896 23.1728 4.97635 37.7657 4.97635C52.3586 4.97635 64.6432 15.0895 67.9491 28.6849C67.4404 28.587 66.9122 28.5282 66.3645 28.5282H63.1762C62.9025 27.5893 62.5697 26.6504 62.1785 25.7311C60.8093 22.601 58.9119 19.7647 56.4667 17.3195H56.4664ZM37.746 57.6748C26.6352 57.6748 17.5977 48.6372 17.5977 37.5265C17.5977 26.4158 26.6354 17.3782 37.746 17.3782C48.8567 17.3782 57.8944 26.4158 57.8944 37.5265C57.8944 40.6369 57.1899 43.5908 55.9187 46.2312L54.5495 47.3268L48.544 47.6004C47.5659 45.5659 45.4923 44.1772 43.1059 44.1772H41.7367C38.4114 44.1772 35.7116 46.8764 35.7116 50.2022C35.7116 53.5276 38.4109 56.2273 41.7367 56.2273H43.1059C45.1012 56.2273 46.8616 55.2492 47.9571 53.7626L49.7567 53.7038C46.4118 56.1881 42.2453 57.6748 37.7462 57.6748L37.746 57.6748ZM47.1552 49.7916C47.1748 49.9286 47.1748 50.0456 47.1748 50.1827C47.1748 50.613 47.1161 51.0237 46.979 51.4148C46.7636 52.0605 46.4116 52.6469 45.9226 53.0973C45.1986 53.8018 44.2014 54.2321 43.1059 54.2321H41.7367C39.5069 54.2321 37.6873 52.413 37.6873 50.1827C37.6873 47.9529 39.5064 46.1334 41.7367 46.1334H43.1059C44.4946 46.1334 45.7469 46.8378 46.4705 47.9329C46.842 48.4611 47.0769 49.1067 47.1552 49.7916ZM60.907 46.9357L55.0972 51.5132H54.8818L52.1434 51.6111L48.9552 51.7286C49.0922 51.2396 49.151 50.7114 49.151 50.1831C49.151 49.9677 49.1314 49.7528 49.1118 49.5374L54.1001 49.3025L55.2936 49.2437L57.5233 47.4638L60.9075 44.7645V46.7402L60.907 46.9357ZM73.0154 40.0501C73.0154 43.7274 70.0225 46.7204 66.345 46.7204H62.8631V30.5039H66.3447C67.0491 30.5039 67.7334 30.6214 68.3792 30.8167C69.181 31.0708 69.905 31.4624 70.5312 31.9906C72.0374 33.2228 73.0155 35.0815 73.0155 37.1742L73.0154 40.0501Z" fill="black"/>
<path d="M70.1203 29.4085C69.69 27.2762 69.0443 25.203 68.1837 23.1881C66.5207 19.2562 64.1344 15.7155 61.1022 12.6833C58.0701 9.65115 54.5293 7.26477 50.5974 5.6018C46.5285 3.88063 42.2054 3 37.7455 3C33.2855 3 28.9624 3.88017 24.8937 5.6018C20.9618 7.26477 17.421 9.65115 14.3889 12.6833C11.3567 15.7155 8.97037 19.2562 7.3074 23.1881C6.4468 25.2029 5.82072 27.2765 5.37081 29.4085C2.49527 30.8169 0.5 33.7707 0.5 37.194V40.0498C0.5 44.8227 4.37318 48.6959 9.14606 48.6959H12.3343C13.5665 48.6959 14.5837 47.6786 14.5837 46.4465V30.7974C14.5837 30.2887 14.4074 29.8193 14.1338 29.4477C17.0289 19.1388 26.5162 11.549 37.7445 11.549C48.914 11.549 58.3818 19.0607 61.3161 29.3108C61.062 29.6432 60.9054 30.0735 60.9054 30.5238V42.2607L58.9688 43.8062C59.5557 41.7914 59.8685 39.6785 59.8685 37.5271C59.8685 31.6195 57.5604 26.0638 53.3936 21.8779C49.2076 17.692 43.6519 15.4029 37.7444 15.4029C31.8368 15.4029 26.2811 17.7111 22.0952 21.8779C17.9093 26.0638 15.6202 31.6195 15.6202 37.5271C15.6202 43.4347 17.9283 48.9904 22.0952 53.1763C26.2811 57.3622 31.8368 59.6513 37.7444 59.6513C43.4562 59.6513 48.8356 57.4992 52.9632 53.5674L55.7995 53.4695L62.059 48.5204C62.3131 48.6379 62.5677 48.6967 62.8609 48.6967H66.3428C71.1157 48.6967 74.9889 44.8235 74.9889 40.0506V37.1948C74.9908 33.771 72.9954 30.8172 70.12 29.4083L70.1203 29.4085ZM12.6291 46.4465C12.6291 46.6032 12.5116 46.7202 12.3554 46.7202H9.16717C5.48986 46.7202 2.49682 43.7273 2.49682 40.0498V37.194C2.49682 35.1008 3.4749 33.223 4.98113 32.0104C5.60723 31.5018 6.35031 31.0911 7.13314 30.8366C7.77881 30.6212 8.4632 30.5237 9.16766 30.5237H12.3755C12.5321 30.5237 12.6491 30.6412 12.6491 30.7974V37.0374L12.6487 46.4466L12.6291 46.4465ZM56.4664 17.3195C54.0407 14.8939 51.2045 12.9768 48.0548 11.6469C44.7882 10.2582 41.3258 9.57327 37.7459 9.57327C34.166 9.57327 30.7035 10.2777 27.437 11.6469C24.2874 12.977 21.4511 14.894 19.0255 17.3195C16.5998 19.745 14.6828 22.5814 13.3529 25.7311C12.9617 26.6504 12.6289 27.5893 12.3552 28.5282H9.16693C8.61915 28.5282 8.09095 28.587 7.58233 28.6849C10.8881 15.0896 23.1728 4.97635 37.7657 4.97635C52.3586 4.97635 64.6432 15.0895 67.9491 28.6849C67.4404 28.587 66.9122 28.5282 66.3645 28.5282H63.1762C62.9025 27.5893 62.5697 26.6504 62.1785 25.7311C60.8093 22.601 58.9119 19.7647 56.4667 17.3195H56.4664ZM37.746 57.6748C26.6352 57.6748 17.5977 48.6372 17.5977 37.5265C17.5977 26.4158 26.6354 17.3782 37.746 17.3782C48.8567 17.3782 57.8944 26.4158 57.8944 37.5265C57.8944 40.6369 57.1899 43.5908 55.9187 46.2312L54.5495 47.3268L48.544 47.6004C47.5659 45.5659 45.4923 44.1772 43.1059 44.1772H41.7367C38.4114 44.1772 35.7116 46.8764 35.7116 50.2022C35.7116 53.5276 38.4109 56.2273 41.7367 56.2273H43.1059C45.1012 56.2273 46.8616 55.2492 47.9571 53.7626L49.7567 53.7038C46.4118 56.1881 42.2453 57.6748 37.7462 57.6748L37.746 57.6748ZM47.1552 49.7916C47.1748 49.9286 47.1748 50.0456 47.1748 50.1827C47.1748 50.613 47.1161 51.0237 46.979 51.4148C46.7636 52.0605 46.4116 52.6469 45.9226 53.0973C45.1986 53.8018 44.2014 54.2321 43.1059 54.2321H41.7367C39.5069 54.2321 37.6873 52.413 37.6873 50.1827C37.6873 47.9529 39.5064 46.1334 41.7367 46.1334H43.1059C44.4946 46.1334 45.7469 46.8378 46.4705 47.9329C46.842 48.4611 47.0769 49.1067 47.1552 49.7916ZM60.907 46.9357L55.0972 51.5132H54.8818L52.1434 51.6111L48.9552 51.7286C49.0922 51.2396 49.151 50.7114 49.151 50.1831C49.151 49.9677 49.1314 49.7528 49.1118 49.5374L54.1001 49.3025L55.2936 49.2437L57.5233 47.4638L60.9075 44.7645V46.7402L60.907 46.9357ZM73.0154 40.0501C73.0154 43.7274 70.0225 46.7204 66.345 46.7204H62.8631V30.5039H66.3447C67.0491 30.5039 67.7334 30.6214 68.3792 30.8167C69.181 31.0708 69.905 31.4624 70.5312 31.9906C72.0374 33.2228 73.0155 35.0815 73.0155 37.1742L73.0154 40.0501Z" stroke="black" mask="url(#path-3-outside-1_7_3001)"/>
</svg>
