<svg width="72" height="72" viewBox="0 0 72 72" fill="none" xmlns="http://www.w3.org/2000/svg">
<path d="M48 10.4033C52.4452 12.6123 55.5 17.1994 55.5 22.5C55.5 27.8006 52.4452 32.3877 48 34.5967M54 50.2992C58.5344 52.351 62.6176 55.695 66 60M6 60C11.8395 52.5677 19.7675 48 28.5 48C37.2325 48 45.1605 52.5677 51 60M42 22.5C42 29.9558 35.9558 36 28.5 36C21.0442 36 15 29.9558 15 22.5C15 15.0442 21.0442 9 28.5 9C35.9558 9 42 15.0442 42 22.5Z" stroke="black" stroke-width="2" stroke-linecap="round" stroke-linejoin="round"/>
</svg>
