<svg width="55" height="55" viewBox="0 0 55 55" fill="none" xmlns="http://www.w3.org/2000/svg">
<path d="M28.0085 6L28.0124 6.0127C30.7065 6.1718 32.9429 8.19875 32.9431 10.8291C32.9431 13.2553 31.0482 15.1717 28.6579 15.5938V20.7188C30.6407 20.9602 32.3957 21.9126 33.5788 23.3047L38.8132 20.5889C38.0604 18.4183 39.073 15.9841 41.2536 14.8516L41.2556 14.8506C42.1246 14.4038 43.0773 14.2046 43.9987 14.2178H44.0075C45.3732 14.2606 47.0821 14.7138 48.235 16.2812L48.4577 16.6094L48.4645 16.6201H48.4636C49.6682 18.6558 49.3576 21.6584 46.4704 23.2803L46.4587 23.2871C44.2422 24.4555 41.4587 24.0198 39.8298 22.2842L34.6052 24.9951C34.9417 25.7625 35.1461 26.603 35.1462 27.4922C35.1462 28.3849 34.9443 29.221 34.6061 29.9893L39.8444 32.7012C40.846 31.6314 42.2836 31.0535 43.7419 31.0332H43.7487C44.5368 31.0332 45.3304 31.1721 46.1266 31.5186L46.4684 31.6807L46.4694 31.6816C49.0091 32.9909 49.946 36.0386 48.4557 38.3789L48.4548 38.3809C46.9583 40.7117 43.7594 41.4061 41.2556 40.1191L41.2536 40.1182C39.0735 38.9857 38.0515 36.5564 38.8112 34.3936L33.5778 31.665C32.3946 33.0571 30.6398 34.0086 28.6569 34.25V39.375C31.0477 39.7968 32.9421 41.7142 32.9421 44.1406C32.9421 46.8767 30.5221 49 27.6706 49C24.8398 48.9998 22.3991 46.8781 22.3991 44.1406C22.3991 41.7106 24.301 39.7917 26.6843 39.374V34.251C24.7109 34.0117 22.9515 33.0639 21.7634 31.6777L16.528 34.3809C17.2748 36.5443 16.2566 38.984 14.0729 40.1182L14.0651 40.123L14.0563 40.127C11.5575 41.3102 8.46642 40.7285 6.89227 38.3721L6.88837 38.3662C5.36931 36.0162 6.36092 32.9861 8.86981 31.6816L9.19794 31.5234C9.97105 31.1798 10.7899 31.0217 11.6003 31.0332C13.0615 31.0543 14.4884 31.6342 15.4938 32.7002L20.7194 29.9902C20.381 29.2217 20.1804 28.3834 20.1804 27.4922C20.1804 26.5996 20.3792 25.7524 20.7194 24.9785L15.5095 22.2832C13.8708 24.0146 11.1038 24.4552 8.86981 23.2871L8.85809 23.2812C7.89141 22.7425 6.95356 21.9246 6.48016 20.793C5.99806 19.6403 6.03075 18.2412 6.86395 16.6299L6.87469 16.6104L6.88641 16.5928C7.85838 15.0558 9.58968 14.2422 11.3434 14.2178C12.2641 14.2049 13.2089 14.4029 14.0729 14.8516C16.2553 15.9848 17.2632 18.4177 16.5261 20.5869L21.7634 23.291C22.9517 21.9046 24.7117 20.9566 26.6852 20.7178V15.5947C24.3018 15.1773 22.3991 13.2593 22.3991 10.8291C22.3991 8.08728 24.8483 6 27.6716 6H28.0085ZM27.6716 41.2529C25.7707 41.2529 24.3727 42.6107 24.3727 44.1406C24.3729 45.6505 25.7755 47.0273 27.6716 47.0273C29.5886 47.0271 30.9702 45.6521 30.9704 44.1406C30.9704 42.609 29.5934 41.2531 27.6716 41.2529ZM43.9323 33.0195C42.7051 32.9878 41.5422 33.5485 40.9499 34.4883L40.946 34.4932C40.0885 35.8158 40.5527 37.523 42.1677 38.3633C43.833 39.218 45.9024 38.69 46.7907 37.3096C47.6369 35.9797 47.1867 34.2736 45.5563 33.4355L45.5505 33.4326C45.0494 33.1677 44.4885 33.034 43.9343 33.0195H43.9323ZM11.3952 33.0195C10.8399 33.0342 10.2861 33.1661 9.77509 33.4336L9.77313 33.4346C8.16193 34.2714 7.69498 35.9707 8.54071 37.292C9.54678 38.6473 11.6653 39.0952 13.1677 38.3594C14.7868 37.5663 15.2554 35.8199 14.4089 34.4893V34.4883C13.8004 33.5439 12.6245 32.9871 11.3952 33.0195ZM27.3815 22.6367C24.4097 22.7719 22.154 24.9766 22.154 27.4922C22.1541 30.0871 24.5559 32.3389 27.6716 32.3389C29.6348 32.3387 31.3101 31.4518 32.278 30.1465L32.4626 29.8799C32.4712 29.8658 32.4807 29.8524 32.4899 29.8389L32.6452 29.5713C32.9859 28.9376 33.1735 28.232 33.1735 27.4922C33.1735 24.8911 30.8049 22.6301 27.6716 22.6299L27.3815 22.6367ZM42.1052 16.627C41.4932 16.8647 40.9713 17.4743 40.7224 18.2432C40.4906 18.9588 40.5189 19.7423 40.8727 20.3818L40.9479 20.5078L40.9489 20.5098C41.8125 21.8654 43.9127 22.4017 45.5505 21.5361L45.5554 21.5332C47.1849 20.6956 47.6359 18.9907 46.7917 17.6611L46.6716 17.4883C46.0387 16.6477 44.9465 16.1601 43.7946 16.1895C43.3087 16.2065 42.7156 16.38 42.112 16.624L42.1061 16.627H42.1052ZM11.321 16.1904C10.1757 16.2294 9.10659 16.7783 8.55243 17.6572L8.54852 17.6631C7.7175 18.9447 8.12813 20.588 9.62469 21.4531L9.77313 21.5342L9.77411 21.5352C11.4337 22.4034 13.5222 21.8604 14.4108 20.4912C15.2497 19.1477 14.7699 17.4423 13.1569 16.6045C12.6487 16.3405 12.1011 16.2036 11.5505 16.1895L11.321 16.1904ZM27.6716 7.97168C25.7668 7.97168 24.3727 9.3246 24.3727 10.8291C24.3728 12.3589 25.7708 13.7158 27.6716 13.7158C29.5934 13.7156 30.9703 12.3607 30.9704 10.8291C30.9704 9.32283 29.5974 7.97188 27.6716 7.97168Z" fill="#49ADE8" stroke="#49ADE8"/>
</svg>
