<svg width="16" height="16" viewBox="0 0 16 16" fill="none" xmlns="http://www.w3.org/2000/svg">
<path d="M8.17605 6.86793L11.833 10.5249C11.8996 10.598 11.9802 10.657 12.0699 10.6984C12.1597 10.7398 12.2568 10.7628 12.3556 10.766C12.4544 10.7692 12.5529 10.7525 12.6451 10.717C12.7374 10.6814 12.8215 10.6277 12.8927 10.5591C12.9638 10.4904 13.0204 10.4082 13.0592 10.3173C13.098 10.2264 13.1181 10.1286 13.1184 10.0297C13.1188 9.93087 13.0992 9.83296 13.061 9.74179C13.0228 9.65062 12.9667 9.56803 12.896 9.49893L12.878 9.48093L8.69905 5.30093C8.56046 5.16237 8.37252 5.08453 8.17655 5.08453C7.98058 5.08453 7.79263 5.16237 7.65405 5.30093L3.47505 9.47993C3.40525 9.54736 3.34942 9.62788 3.31074 9.7169C3.27206 9.80591 3.25129 9.90166 3.24962 9.9987C3.24795 10.0957 3.26541 10.1922 3.301 10.2824C3.33659 10.3727 3.38961 10.4551 3.45705 10.5249C3.52448 10.5947 3.605 10.6506 3.69401 10.6892C3.78302 10.7279 3.87878 10.7487 3.97582 10.7504C4.07286 10.752 4.16927 10.7346 4.25956 10.699C4.34985 10.6634 4.43225 10.6104 4.50205 10.5429L4.52005 10.5249L8.17605 6.86793Z" fill="#49ADE8" stroke="#49ADE8" stroke-width="0.5"/>
</svg>
