<svg width="107" height="109" viewBox="0 0 107 109" fill="none" xmlns="http://www.w3.org/2000/svg">
<path d="M10.2789 77.5962H13.3396V79.9346C13.3396 82.8299 16.3802 85.0965 20.2633 85.0965C24.1464 85.0965 27.1841 82.8295 27.1841 79.9346L27.1845 45.2008C27.1845 42.5869 24.6977 40.5028 21.3601 40.1188C21.5928 32.227 24.5606 23.4819 28.8135 18.1342L28.8132 18.1338C29.7809 18.6948 30.9006 18.9364 32.0133 18.8245C33.1259 18.7123 34.1755 18.2524 35.0116 17.51C40.1419 13.0038 46.7253 10.4985 53.5529 10.4535H53.7485C61.2532 10.4535 68.4334 15.1188 72.0642 17.9171H72.0646C73.0082 18.6446 74.1666 19.0379 75.3577 19.0361C76.3266 19.0331 77.2768 18.7729 78.1118 18.2825C82.9061 23.8879 85.5701 31.0051 85.6352 38.3809V40.1156C82.2849 40.491 79.7822 42.5796 79.7822 45.1991V79.9348C79.7822 82.5501 82.2719 84.6358 85.6126 85.0168C85.5367 88.7199 85.3884 92.5457 85.2456 93.1167H85.2453C84.6021 95.2072 83.3407 97.0537 81.6276 98.4132C79.9145 99.7727 77.8297 100.581 75.6478 100.733L63.739 101.933C63.4657 100.604 62.743 99.4098 61.6916 98.5515C60.6407 97.6935 59.3258 97.2239 57.9684 97.2224H51.9726C49.8688 97.2224 47.9249 98.3448 46.8731 100.167C45.821 101.989 45.821 104.234 46.8731 106.056C47.9249 107.878 49.8688 109 51.9726 109H57.9684C59.3581 108.997 60.7013 108.502 61.7608 107.603C62.8204 106.704 63.5274 105.459 63.7575 104.089L75.8519 102.87V102.87C78.4672 102.679 80.9637 101.699 83.0106 100.06C85.058 98.421 86.5599 96.1998 87.3183 93.6893C87.6176 90.8092 87.7666 87.9154 87.7652 85.0197C91.127 84.6498 93.6368 82.5601 93.6368 79.9347V77.5963H96.6975C104.264 77.5963 106.947 73.6635 106.957 62.5678C106.957 57.6984 105.896 53.8923 103.791 51.2576C101.891 48.8452 98.9669 47.4675 95.8973 47.5389H93.6292V45.2005C93.6292 42.5811 91.1294 40.4895 87.7761 40.117V38.3809C87.7133 30.4783 84.8566 22.8527 79.7114 16.855C80.4624 15.8791 80.8643 14.6798 80.8535 13.4485C80.8357 11.8916 80.149 10.4175 78.9694 9.4015C73.3275 4.54775 63.7315 -0.257466 54.8434 0.0107277C42.8089 0.336395 35.7853 2.81163 28.005 9.46688V9.46725C26.9767 10.3483 26.3231 11.5882 26.1767 12.9344C26.0302 14.2806 26.4023 15.6319 27.2169 16.7133C22.6487 22.4035 19.4593 31.7333 19.2225 40.1113C15.8577 40.4797 13.3437 42.5709 13.3437 45.1977V47.5361H10.2785C0.752808 47.5361 0 54.0501 0 62.5646C0 71.0784 0.752445 77.597 10.2785 77.597L10.2789 77.5962ZM57.9713 106.853H51.9755C50.6368 106.853 49.3995 106.139 48.7303 104.979C48.0607 103.82 48.0607 102.391 48.7303 101.232C49.3995 100.072 50.6367 99.3581 51.9755 99.3581H57.9713C59.3099 99.3581 60.5472 100.072 61.2168 101.232C61.886 102.391 61.886 103.82 61.2168 104.979C60.5473 106.139 59.31 106.853 57.9713 106.853ZM95.8905 49.6805C98.307 49.6188 100.611 50.6984 102.11 52.594C103.879 54.8083 104.813 58.2571 104.809 62.567C104.799 73.527 102.182 75.4552 96.6901 75.4552H93.6294V49.6808L95.8905 49.6805ZM91.4876 45.2008L91.488 79.9346C91.488 81.5718 89.2979 82.9552 86.7057 82.9552C84.1134 82.9552 81.9262 81.5718 81.9262 79.9346L81.9259 45.2008C81.9259 43.5635 84.1144 42.1802 86.7053 42.1802C89.2965 42.1798 91.488 43.5632 91.488 45.2008H91.4876ZM29.3929 11.0989C36.7535 4.80452 43.4289 2.46501 54.9037 2.1539C63.1294 1.93679 72.2459 6.44966 77.5736 11.0275C78.2933 11.6383 78.7104 12.5331 78.7156 13.477C78.7286 14.4481 78.323 15.3775 77.6022 16.0281C77.0319 16.5497 76.2966 16.8545 75.5244 16.8891C74.7526 16.9241 73.9927 16.6865 73.3778 16.2181C69.5234 13.2543 61.8925 8.31065 53.7534 8.31065H53.5363C46.1921 8.36344 39.1131 11.0624 33.5979 15.9125C32.9622 16.4895 32.1212 16.7865 31.2643 16.7363C30.4074 16.6861 29.6066 16.2935 29.0426 15.6467C28.4783 14.9994 28.1983 14.153 28.2652 13.2971C28.3325 12.4413 28.7411 11.6483 29.3995 11.0974L29.3929 11.0989ZM15.4808 45.2008C15.4808 43.5635 17.6693 42.1813 20.2587 42.1802H20.2702C22.8584 42.1802 25.0426 43.5651 25.0426 45.2008L25.0429 79.9346C25.0429 81.5718 22.8544 82.9552 20.2635 82.9552C17.6723 82.9552 15.4811 81.5718 15.4811 79.9346L15.4808 45.2008ZM10.2787 49.6805H13.3394V75.4549H10.2787C2.93971 75.4549 2.1415 71.3279 2.1415 62.5667C2.1415 53.8057 2.93968 49.6805 10.2787 49.6805Z" fill="black"/>
</svg>
