<svg width="157" height="120" viewBox="0 0 157 120" fill="none" xmlns="http://www.w3.org/2000/svg">
<circle opacity="0.65" cx="97" cy="60" r="60" fill="#49ADE8"/>
<path d="M105.234 6.17926C105.923 6.17926 106.481 5.62109 106.481 4.93155V3.53373C106.481 2.84422 105.923 2.28601 105.234 2.28601C104.544 2.28601 103.986 2.84419 103.986 3.53373V4.93155C103.981 5.62106 104.54 6.17926 105.234 6.17926Z" fill="black"/>
<path d="M105.234 13.613C105.923 13.613 106.481 13.0548 106.481 12.3653V10.9674C106.481 10.2779 105.923 9.71973 105.234 9.71973C104.544 9.71973 103.986 10.2779 103.986 10.9674V12.3653C103.981 13.0548 104.54 13.613 105.234 13.613Z" fill="black"/>
<path d="M107.665 9.19905H109.063C109.752 9.19905 110.311 8.64087 110.311 7.95133C110.311 7.26179 109.752 6.70361 109.063 6.70361H107.665C106.976 6.70361 106.417 7.26179 106.417 7.95133C106.417 8.63616 106.976 9.19905 107.665 9.19905Z" fill="black"/>
<path d="M101.401 9.19905H102.799C103.489 9.19905 104.047 8.64087 104.047 7.95133C104.047 7.26179 103.489 6.70361 102.799 6.70361H101.401C100.712 6.70361 100.154 7.26179 100.154 7.95133C100.149 8.63616 100.707 9.19905 101.401 9.19905Z" fill="black"/>
<path d="M7.96964 33.5339C7.28013 33.5339 6.72192 34.0921 6.72192 34.7817V36.1795C6.72192 36.869 7.2801 37.4272 7.96964 37.4272C8.65918 37.4272 9.21736 36.869 9.21736 36.1795V34.7817C9.21736 34.0968 8.65918 33.5339 7.96964 33.5339Z" fill="black"/>
<path d="M7.96967 44.8704C8.65918 44.8704 9.21739 44.3122 9.21739 43.6227V42.2249C9.21739 41.5354 8.65921 40.9772 7.96967 40.9772C7.28013 40.9772 6.72195 41.5353 6.72195 42.2249V43.6227C6.71726 44.3122 7.28013 44.8704 7.96967 44.8704Z" fill="black"/>
<path d="M10.3994 40.4525H11.8019C12.4914 40.4525 13.0497 39.8943 13.0497 39.2047C13.0497 38.5152 12.4915 37.957 11.8019 37.957H10.4041C9.71461 37.957 9.1564 38.5152 9.1564 39.2047C9.15171 39.8943 9.70988 40.4525 10.3994 40.4525Z" fill="black"/>
<path d="M4.13788 40.4523H5.5404C6.22991 40.4523 6.78812 39.8942 6.78812 39.2046C6.78812 38.5151 6.22994 37.9569 5.5404 37.9569L4.13788 37.9522C3.44837 37.9522 2.89017 38.5104 2.89017 39.1999C2.88548 39.8941 3.44834 40.4523 4.13788 40.4523Z" fill="black"/>
<path d="M111.398 43.6564C109.409 43.6564 107.795 45.2747 107.795 47.2588C107.795 49.2476 109.414 50.8612 111.398 50.8612C113.386 50.8612 115 49.2429 115 47.2588C115 45.2747 113.382 43.6564 111.398 43.6564ZM111.398 48.3657C110.788 48.3657 110.291 47.8685 110.291 47.2588C110.291 46.6491 110.788 46.1519 111.398 46.1519C112.007 46.1519 112.505 46.6491 112.505 47.2588C112.5 47.8733 112.007 48.3657 111.398 48.3657Z" fill="black"/>
<path d="M25.1752 11.9811C25.1752 14.5281 27.2485 16.6014 29.7955 16.6014C32.3424 16.6014 34.4157 14.5281 34.4157 11.9811C34.4157 9.43416 32.3424 7.3609 29.7955 7.3609C27.2485 7.3609 25.1752 9.43416 25.1752 11.9811ZM31.9155 11.9811C31.9155 13.1491 30.9634 14.1013 29.7954 14.1013C28.6274 14.1013 27.6752 13.1491 27.6752 11.9811C27.6752 10.8131 28.6274 9.86094 29.7954 9.86094C30.9634 9.86094 31.9155 10.8131 31.9155 11.9811Z" fill="black"/>
<path d="M2.4441 72.6436C2.40658 72.8406 2.38312 73.0423 2.38312 73.2487V78.9713C2.38312 80.6505 3.74812 82.0155 5.42732 82.0155H6.7735C6.74067 82.1937 6.71721 82.3719 6.71721 82.5596V88.2821C6.71721 88.4697 6.74067 88.648 6.7735 88.8262L5.42732 88.8215C3.74812 88.8215 2.38312 90.1865 2.38312 91.8657V97.5883C2.38312 99.2675 3.74812 100.632 5.42732 100.632H43.4582C45.1374 100.632 46.5024 99.2675 46.5024 97.5883V91.8657C46.5024 91.6781 46.479 91.4999 46.4462 91.3216H47.7923C49.4715 91.3216 50.8365 89.9566 50.8365 88.2774V82.5549C50.8365 80.8757 49.4715 79.5154 47.7923 79.5154H46.4462C46.479 79.3371 46.5024 79.1589 46.5024 78.9713V73.2487C46.5024 71.7759 45.4518 70.547 44.0633 70.2656C44.1009 70.0686 44.1243 69.8669 44.1243 69.6605V63.9379C44.1243 63.7503 44.1009 63.5721 44.068 63.3938H46.0521C47.7313 63.3938 49.0963 62.0288 49.0963 60.3496V54.6271C49.0963 52.9479 47.7313 51.5829 46.0521 51.5829L8.0162 51.5876C6.337 51.5876 4.97201 52.9526 4.97201 54.6318V60.3543C4.97201 60.5419 4.99546 60.7202 5.0283 60.8984L3.04419 60.8937C1.36499 60.8937 0 62.2587 0 63.9379V69.6605C0.00469057 71.1334 1.05539 72.3623 2.4438 72.6436L2.4441 72.6436ZM43.9973 91.8662V97.5888C43.9973 97.889 43.7534 98.1329 43.4532 98.1329H38.6923V94.3101C38.6923 93.6206 38.1341 93.0624 37.4446 93.0624C36.755 93.0624 36.1969 93.6205 36.1969 94.3101V98.1329H30.024V94.3101C30.024 93.6206 29.4659 93.0624 28.7763 93.0624C28.0868 93.0624 27.5286 93.6205 27.5286 94.3101V98.1329L21.3557 98.1282V94.3054C21.3557 93.6159 20.7976 93.0577 20.108 93.0577C19.4185 93.0577 18.8603 93.6159 18.8603 94.3054V98.1282H12.6875V94.3054C12.6875 93.6159 12.1293 93.0577 11.4397 93.0577C10.7502 93.0577 10.192 93.6159 10.192 94.3054V98.1282H5.42641C5.12621 98.1282 4.8823 97.8843 4.8823 97.5841V91.8615C4.8823 91.5613 5.12621 91.3174 5.42641 91.3174H43.4573C43.7528 91.3221 43.9967 91.566 43.9967 91.8662L43.9973 91.8662ZM48.3361 82.5554V88.278C48.3361 88.5782 48.0922 88.8221 47.792 88.8221H43.0358V84.9993C43.0358 84.3098 42.4776 83.7516 41.788 83.7516C41.0985 83.7516 40.5403 84.3097 40.5403 84.9993V88.8221H34.3675V84.9993C34.3675 84.3098 33.8093 83.7516 33.1198 83.7516C32.4302 83.7516 31.872 84.3097 31.872 84.9993V88.8221H25.6992V84.9993C25.6992 84.3098 25.141 83.7516 24.4515 83.7516C23.7619 83.7516 23.2038 84.3097 23.2038 84.9993V88.8221H17.0309V84.9993C17.0309 84.3098 16.4727 83.7516 15.7832 83.7516C15.0937 83.7516 14.5355 84.3097 14.5355 84.9993V88.8221H9.77926C9.47906 88.8221 9.23515 88.5782 9.23515 88.278L9.21639 82.5554C9.21639 82.2552 9.4603 82.0113 9.7605 82.0113H47.7914C48.0916 82.0113 48.3355 82.2552 48.3355 82.5554H48.3361ZM38.697 79.5159V75.6884C38.697 74.9989 38.1388 74.4407 37.4492 74.4407C36.7597 74.4407 36.2015 74.9989 36.2015 75.6884V79.5112H30.0287L30.024 75.6884C30.024 74.9989 29.4658 74.4407 28.7763 74.4407C28.0867 74.4407 27.5286 74.9989 27.5286 75.6884V79.5112L21.3557 79.5159V75.6884C21.3557 74.9989 20.7975 74.4407 20.108 74.4407C19.4184 74.4407 18.8603 74.9989 18.8603 75.6884V79.5112H12.6874L12.6827 75.6884C12.6827 74.9989 12.1246 74.4407 11.435 74.4407C10.7455 74.4407 10.1873 74.9989 10.1873 75.6884V79.5112H9.76514L5.4264 79.5159C5.1262 79.5159 4.88229 79.272 4.88229 78.9718V73.2493C4.88229 72.9491 5.1262 72.7051 5.4264 72.7051H43.4573C43.7575 72.7051 44.0014 72.9491 44.0014 73.2493V78.9718C44.0014 79.272 43.7575 79.5159 43.4573 79.5159L38.697 79.5159ZM7.4715 60.3554V54.6328C7.4715 54.3326 7.71541 54.0887 8.0156 54.0887H46.0465C46.3467 54.0887 46.5906 54.3326 46.5906 54.6328V60.3554C46.5906 60.6556 46.3467 60.8995 46.0465 60.8995H41.2903V57.0767C41.2903 56.3872 40.7321 55.829 40.0426 55.829C39.3531 55.829 38.7949 56.3871 38.7949 57.0767V60.8995H32.622V57.0767C32.622 56.3872 32.0639 55.829 31.3743 55.829C30.6848 55.829 30.1266 56.3871 30.1266 57.0767V60.8995H23.9538V57.0767C23.9538 56.3872 23.3956 55.829 22.706 55.829C22.0165 55.829 21.4583 56.3871 21.4583 57.0767V60.8995H15.2855V57.0767C15.2855 56.3872 14.7273 55.829 14.0377 55.829C13.3482 55.829 12.79 56.3871 12.79 57.0767V60.8995L8.015 60.8948C7.71481 60.8948 7.4709 60.6556 7.4709 60.3554H7.4715ZM2.50414 63.9389C2.50414 63.6387 2.74805 63.3948 3.04825 63.3948H41.0792C41.3794 63.3948 41.6233 63.6387 41.6233 63.9389V69.6615C41.6233 69.9617 41.3794 70.2056 41.0792 70.2056H36.3183V66.3828C36.3183 65.6933 35.7601 65.1351 35.0705 65.1351C34.381 65.1351 33.8228 65.6932 33.8228 66.3828V70.2056H27.65V66.3828C27.65 65.6933 27.0918 65.1351 26.4023 65.1351C25.7127 65.1351 25.1545 65.6932 25.1545 66.3828V70.2056H18.9817V66.3828C18.9817 65.6933 18.4235 65.1351 17.734 65.1351C17.0444 65.1351 16.4863 65.6932 16.4863 66.3828V70.2056H10.3134V66.3828C10.3134 65.6933 9.75523 65.1351 9.06569 65.1351C8.37615 65.1351 7.81797 65.6932 7.81797 66.3828V70.2056H3.04294C2.74275 70.2056 2.49884 69.9617 2.49884 69.6615L2.50414 63.9389Z" fill="black"/>
<path d="M70.2926 74.5158V73.5683C72.3987 73.0102 73.9654 71.1058 73.9654 68.8214C73.9654 66.1055 71.7561 63.8963 69.0402 63.8963C67.7035 63.8963 66.6152 62.8081 66.6152 61.4713C66.6152 60.1345 67.7035 59.0463 69.0402 59.0463C70.1848 59.0463 71.1838 59.8578 71.4137 60.9742C71.5544 61.6496 72.2064 62.0811 72.8913 61.9451C73.5667 61.8044 74.0029 61.143 73.8622 60.4676C73.4776 58.6194 72.0563 57.1982 70.288 56.7292V55.8099C70.288 55.1203 69.7298 54.5621 69.0402 54.5621C68.3507 54.5621 67.7925 55.1203 67.7925 55.8099V56.7292C65.6864 57.2874 64.1198 59.1917 64.1198 61.4714C64.1198 64.1873 66.3291 66.3965 69.0449 66.3965C70.3817 66.3965 71.4699 67.4848 71.4699 68.8215C71.4699 70.1583 70.3817 71.2465 69.0449 71.2465C67.9426 71.2465 66.9764 70.5007 66.6996 69.4359C66.526 68.7699 65.8459 68.3711 65.1752 68.54C64.5091 68.7136 64.1057 69.3984 64.2793 70.0644C64.7343 71.814 66.1086 73.1226 67.7972 73.5683V74.5158C67.7972 75.2053 68.3554 75.7636 69.0449 75.7636C69.7345 75.7636 70.2926 75.2054 70.2926 74.5158Z" fill="black"/>
<path d="M86.0257 65.1625C86.0257 55.7955 78.4083 48.1774 69.0406 48.1774C59.6783 48.1774 52.0605 55.7949 52.0605 65.1625C52.0605 74.5248 59.678 82.1476 69.0456 82.1476C78.4079 82.1476 86.0257 74.5254 86.0257 65.1625ZM54.5611 65.1625C54.5611 57.1792 61.0576 50.679 69.0446 50.679C77.0326 50.679 83.5281 57.1755 83.5281 65.1625C83.5281 73.1497 77.0316 79.646 69.0446 79.646C61.0566 79.646 54.5611 73.1448 54.5611 65.1625Z" fill="black"/>
<path d="M99.1899 99.1318C103.848 100.994 109.153 101.182 111.53 99.5727C112.463 98.9395 112.979 98.0248 112.979 96.9977C112.979 95.2621 111.985 93.2921 110.024 91.1344C107.942 88.8173 106.849 85.6699 106.947 82.2645C107.44 65.3454 102.346 52.471 96.3703 43.2809L110.386 29.2658V32.6196C110.386 33.3091 110.944 33.8673 111.633 33.8673C112.323 33.8673 112.881 33.3091 112.881 32.6196V26.2263C112.881 25.5367 112.323 24.9785 111.633 24.9785H105.24C104.55 24.9785 103.992 25.5367 103.992 26.2263C103.992 26.9158 104.55 27.474 105.24 27.474H108.641L94.9346 41.18C90.1503 34.4114 85.0562 29.8996 81.9231 27.484C83.4944 26.9258 84.6248 25.4388 84.6248 23.6799C84.6248 21.8693 83.4193 20.3449 81.7777 19.829C90.0425 13.9001 94.3439 8.5946 94.2078 4.46289C94.1797 3.6139 93.7904 2.85874 93.0727 2.28176C89.2123 -0.823371 74.8447 1.75642 73.2177 2.05662C69.7795 2.69454 64.6198 1.82678 60.07 1.05752C55.1777 0.236674 50.9563 -0.476283 48.4654 0.405535C46.8613 0.973097 45.8387 2.1879 45.576 3.82027C44.9803 7.58214 48.3388 12.4415 51.8004 15.1057C52.2554 15.4575 52.7338 15.8186 53.2264 16.1939C54.6898 17.3008 56.2753 18.5063 57.5511 19.7212C55.7405 20.1246 54.3802 21.7381 54.3802 23.6707C54.3802 25.2092 55.2527 26.532 56.5144 27.2214C53.9018 29.1961 49.9851 32.5499 46.0075 37.3721L34.7692 26.1337C34.3001 25.6646 33.4699 25.6646 33.0008 26.1337L17.4846 41.6599C16.9968 42.1477 16.9968 42.9404 17.4846 43.4282C17.7285 43.6721 18.0475 43.7941 18.3665 43.7941C18.6854 43.7941 19.0044 43.6721 19.253 43.4282L33.8836 28.7846L44.4375 39.3436C42.3361 42.097 40.2676 45.2536 38.4147 48.8514C38.0958 49.4659 38.3397 50.2164 38.9542 50.5353C39.1371 50.6291 39.3341 50.676 39.5264 50.676C39.9814 50.676 40.4176 50.4274 40.638 50.0006C47.4253 36.8439 57.1589 29.6903 60.1088 27.734H63.7487L62.5667 32.2744C62.3932 32.9405 62.7919 33.6253 63.4626 33.7988C63.5705 33.827 63.6737 33.8411 63.7769 33.8411C64.3304 33.8411 64.8417 33.4705 64.9871 32.9076L66.3332 27.7339H71.8728L74.0586 33.0624C74.2556 33.5456 74.7247 33.8411 75.2172 33.8411C75.3767 33.8411 75.5361 33.8129 75.6909 33.7473C76.3288 33.4846 76.6337 32.7575 76.3711 32.1196L74.5746 27.7386H78.3599C78.6225 28.0623 78.9368 28.3953 79.2792 28.6392C85.4191 33.0765 105.372 50.0512 104.435 82.2053C104.317 86.2533 105.635 90.0246 108.154 92.8243C109.641 94.4613 110.462 95.9482 110.462 97.0082C110.462 97.0927 110.462 97.2756 110.115 97.5101C108.633 98.5139 104.256 98.4764 100.105 96.8159C95.8323 95.1086 91.3903 94.7427 87.258 95.7464C82.6611 96.8768 75.7804 98.1668 69.03 98.1808C62.2475 98.1949 55.4081 96.8768 50.8121 95.7464C50.146 95.5775 49.4659 95.9903 49.3017 96.6611C49.1375 97.3318 49.5456 98.0072 50.2163 98.1715C54.8882 99.3206 61.882 100.681 68.7625 100.681H69.2925C76.1877 100.681 83.1756 99.3206 87.8487 98.1715C91.4886 97.2896 95.4052 97.6227 99.1901 99.133L99.1899 99.1318ZM53.3338 13.1355C50.0973 10.6447 47.677 6.56395 48.0476 4.22342C48.1648 3.48231 48.5541 3.03674 49.3046 2.76936C51.1808 2.10331 55.4914 2.82565 59.6564 3.52924C64.6471 4.36885 69.802 5.24126 73.6766 4.51895C82.0868 2.94762 89.7561 2.82094 91.5102 4.23282C91.7073 4.39231 91.7119 4.48611 91.7119 4.54241C91.7635 6.10903 90.666 10.598 79.4089 18.4545C78.8929 18.8157 78.4848 19.2144 78.1236 19.6272H74.5869L77.9266 11.5407C78.1893 10.9028 77.8844 10.171 77.2465 9.90842C76.6085 9.64585 75.8768 9.95064 75.6142 10.5839L71.8806 19.6226H66.28L63.3859 10.6729C63.1748 10.0162 62.4712 9.65506 61.8098 9.86615C61.1532 10.0772 60.792 10.7808 61.0031 11.4375L63.6486 19.6178H60.853C59.3098 17.676 56.8942 15.8373 54.7318 14.2002C54.2533 13.8437 53.7843 13.4872 53.3339 13.1354L53.3338 13.1355ZM58.4325 22.1273H80.573C81.4313 22.1273 82.1256 22.8262 82.1256 23.6799C82.1256 24.5382 81.4267 25.2325 80.573 25.2325H58.4325C57.5741 25.2325 56.8798 24.5336 56.8798 23.6799C56.8798 22.8215 57.5788 22.1273 58.4325 22.1273Z" fill="black"/>
</svg>
