<svg width="72" height="72" viewBox="0 0 72 72" fill="none" xmlns="http://www.w3.org/2000/svg">
<path d="M33.848 10.3599C34.5394 8.9591 34.8851 8.25869 35.3545 8.03491C35.7628 7.84021 36.2373 7.84021 36.6456 8.03491C37.115 8.25869 37.4607 8.9591 38.1521 10.3599L44.7122 23.6498C44.9163 24.0634 45.0184 24.2701 45.1675 24.4307C45.2996 24.5728 45.458 24.688 45.6339 24.7698C45.8327 24.8622 46.0608 24.8956 46.5172 24.9623L61.191 27.1071C62.7362 27.3329 63.5088 27.4459 63.8663 27.8233C64.1774 28.1516 64.3237 28.6029 64.2645 29.0513C64.1965 29.5667 63.6371 30.1115 62.5184 31.2011L51.9043 41.5392C51.5735 41.8615 51.408 42.0226 51.3013 42.2144C51.2068 42.3841 51.1461 42.5706 51.1227 42.7635C51.0963 42.9813 51.1354 43.209 51.2134 43.6642L53.7179 58.2663C53.982 59.8064 54.1141 60.5765 53.8659 61.0335C53.6499 61.4311 53.2661 61.7099 52.8212 61.7924C52.3099 61.8872 51.6184 61.5235 50.2353 60.7962L37.1171 53.8975C36.7084 53.6825 36.504 53.575 36.2887 53.5328C36.0981 53.4954 35.902 53.4954 35.7114 53.5328C35.4961 53.575 35.2917 53.6825 34.883 53.8975L21.7648 60.7962C20.3817 61.5235 19.6902 61.8872 19.1789 61.7924C18.734 61.7099 18.3502 61.4311 18.1342 61.0335C17.886 60.5765 18.0181 59.8064 18.2822 58.2663L20.7867 43.6642C20.8647 43.209 20.9038 42.9813 20.8774 42.7635C20.854 42.5706 20.7933 42.3841 20.6988 42.2144C20.5921 42.0226 20.4266 41.8615 20.0958 41.5392L9.48168 31.2011C8.36299 30.1115 7.80364 29.5667 7.73558 29.0513C7.67636 28.6029 7.82266 28.1516 8.13375 27.8233C8.49131 27.4459 9.26391 27.3329 10.8091 27.1071L25.4829 24.9623C25.9393 24.8956 26.1674 24.8622 26.3662 24.7698C26.5421 24.688 26.7005 24.5728 26.8326 24.4307C26.9817 24.2701 27.0838 24.0634 27.2879 23.6498L33.848 10.3599Z" stroke="black" stroke-width="2" stroke-linecap="round" stroke-linejoin="round"/>
</svg>
